<svg xmlns:dc="http://purl.org/dc/elements/1.1/" xmlns:cc="http://creativecommons.org/ns#" xmlns:rdf="http://www.w3.org/1999/02/22-rdf-syntax-ns#" xmlns:svg="http://www.w3.org/2000/svg" xmlns="http://www.w3.org/2000/svg" xmlns:xlink="http://www.w3.org/1999/xlink" id="svg2868" version="1.1" viewBox="0 0 18.520833 18.520834" height="70" width="70">
  <defs id="defs2862" fill="#000000">
    <linearGradient gradientUnits="userSpaceOnUse" y2="374.23099" x2="184.325" y1="154" x1="405.91" id="linearGradient2245" xlink:href="#linearGradient2213" fill="#000000"/>
    <linearGradient id="linearGradient2213" fill="#000000">
      <stop id="stop2209" offset="0" style="stop-color:#a35353;stop-opacity:1" fill="#000000"/>
      <stop id="stop2211" offset="1" style="stop-color:#1b4694;stop-opacity:1" fill="#000000"/>
    </linearGradient>
  </defs>
  <metadata id="metadata2865" fill="#000000">
    <rdf:RDF fill="#000000">
      <cc:Work rdf:about="" fill="#000000">
        <dc:format fill="#000000">image/svg+xml</dc:format>
        <dc:type rdf:resource="http://purl.org/dc/dcmitype/StillImage" fill="#000000"/>
        <dc:title fill="#000000"/>
      </cc:Work>
    </rdf:RDF>
  </metadata>
  <g transform="translate(0,-278.47915)" id="layer1">
    <g transform="matrix(0.03645833,0,0,0.03645833,8.4666667e-7,278.47915)" id="g2161">
      <path style="fill:url(#linearGradient2245);fill-opacity:1" d="m 105,104 c 0,5.523 -4.477,10 -10,10 -5.523,0 -10,-4.477 -10,-10 0,-5.523 4.477,-10 10,-10 5.523,0 10,4.477 10,10 z M 50,94 c -5.523,0 -10,4.477 -10,10 0,5.523 4.477,10 10,10 5.523,0 10,-4.477 10,-10 C 60,98.477 55.523,94 50,94 Z M 508,84 v 360 c 0,5.523 -4.477,10 -10,10 H 299 c -5.739,0 -10.373,-4.873 -9.976,-10.694 C 289.385,438 294.04,434 299.358,434 h 39.967 l -78.208,-73.109 c -9.318,-8.71 -23.917,-8.71 -33.234,0 l -37.792,35.327 c -3.89,3.661 -10.761,3.807 -14.637,-1.058 L 94.133,293.5 20,386.167 V 434 h 189.01 c 5.737,0.01 10.357,4.866 9.967,10.685 -0.356,5.309 -5.009,9.315 -10.329,9.315 H 10 C 4.477,454 0,449.523 0,444 V 84 C 0,67.432 13.431,54 30,54 h 448 c 16.569,0 30,13.432 30,30 z M 263.231,296.264 c 6.909,-22.103 25.188,-41.458 49.134,-48.881 L 405.91,154 H 20 v 200.15 l 58.513,-73.141 c 8.007,-10.008 23.228,-10.008 31.235,0 l 74.577,93.222 29.9,-27.951 c 10.184,-9.519 23.828,-13.321 36.782,-11.42 4.235,-13.362 9.705,-30.536 12.224,-38.596 z m 126.388,-52.182 56.398,-56.301 c 18.337,-18.336 32.154,-39.821 41.095,-63.894 -24.071,8.939 -45.557,22.757 -63.899,41.1 l -56.393,56.295 z m -36.954,-8.669 -20.877,20.841 22.799,22.799 20.877,-20.841 z m -82.524,105.276 c 13.334,-4.224 30.358,-9.702 38.392,-12.159 18.081,-5.53 29.823,-20.046 34.618,-32.628 L 314.929,267.68 c -15.671,5.837 -28.058,19.514 -32.629,34.62 -2.433,8.038 -7.935,25.055 -12.159,38.389 z M 488,167.065 c -7.865,12.524 -17.16,24.179 -27.846,34.864 l -96.711,96.544 c -6.766,22.526 -26.12,42.215 -48.878,49.125 -6.173,1.874 -17.632,5.583 -28.668,9.079 L 368.613,434 H 488 Z M 488,84 c 0,-5.514 -4.486,-10 -10,-10 H 30 c -5.514,0 -10,4.486 -10,10 v 50 H 428.202 C 444.761,121.176 470.161,107.161 488,103.052 Z M 242,234 c 0,25.364 -20.636,46 -46,46 -25.364,0 -46,-20.636 -46,-46 0,-25.364 20.636,-46 46,-46 25.364,0 46,20.636 46,46 z m -20,0 c 0,-14.336 -11.664,-26 -26,-26 -14.336,0 -26,11.664 -26,26 0,14.336 11.664,26 26,26 14.336,0 26,-11.664 26,-26 z M 140,94 c -5.523,0 -10,4.477 -10,10 0,5.523 4.477,10 10,10 5.523,0 10,-4.477 10,-10 0,-5.523 -4.477,-10 -10,-10 z m 124,350 c 0,5.51 -4.49,10 -10,10 -5.51,0 -10,-4.49 -10,-10 0,-5.51 4.49,-10 10,-10 5.51,0 10,4.49 10,10 z" id="path2159"/>
    </g>
  </g>
</svg>