<svg xmlns:dc="http://purl.org/dc/elements/1.1/" xmlns:cc="http://creativecommons.org/ns#" xmlns:rdf="http://www.w3.org/1999/02/22-rdf-syntax-ns#" xmlns:svg="http://www.w3.org/2000/svg" xmlns="http://www.w3.org/2000/svg" xmlns:xlink="http://www.w3.org/1999/xlink" id="svg8" version="1.1" viewBox="0 0 18.520832 15.203124" height="57.460625" width="69.999992">
  <defs id="defs2" fill="#000000">
    <linearGradient gradientTransform="matrix(0.04851145,0,0,0.04851145,-49.948885,278.2208)" gradientUnits="userSpaceOnUse" y2="106.35164" x2="1298.2155" y1="358.75116" x1="1100.8389" id="linearGradient9119" xlink:href="#linearGradient9117" fill="#000000"/>
    <linearGradient id="linearGradient9117" fill="#000000">
      <stop id="stop9113" offset="0" style="stop-color:#000000;stop-opacity:1;" fill="#000000"/>
      <stop id="stop9115" offset="1" style="stop-color:#a35353;stop-opacity:1" fill="#000000"/>
    </linearGradient>
    <linearGradient id="linearGradient2213" fill="#000000">
      <stop style="stop-color:#a35353;stop-opacity:1" offset="0" id="stop2209" fill="#000000"/>
      <stop style="stop-color:#1b4694;stop-opacity:1" offset="1" id="stop2211" fill="#000000"/>
    </linearGradient>
    <linearGradient gradientUnits="userSpaceOnUse" y2="376" x2="50" y1="176" x1="365" id="linearGradient2253" xlink:href="#linearGradient2213" fill="#000000"/>
    <linearGradient gradientUnits="userSpaceOnUse" y2="374.23099" x2="184.325" y1="154" x1="405.91" id="linearGradient2245" xlink:href="#linearGradient2213" fill="#000000"/>
    <linearGradient gradientUnits="userSpaceOnUse" y2="404.15103" x2="140.57825" y1="78.875504" x1="393.28235" id="linearGradient978" xlink:href="#linearGradient2213" fill="#000000"/>
    <linearGradient gradientTransform="matrix(0.13779526,0,0,0.13779526,0,-6.2696832)" y2="404.15103" x2="140.57825" y1="78.875504" x1="393.28235" gradientUnits="userSpaceOnUse" id="linearGradient1007" xlink:href="#linearGradient2213" fill="#000000"/>
    <linearGradient y2="404.15103" x2="140.57825" y1="78.875504" x1="393.28235" gradientTransform="translate(0.00255762,-43.538571)" gradientUnits="userSpaceOnUse" id="linearGradient1111" xlink:href="#linearGradient2213" fill="#000000"/>
    <linearGradient y2="404.15103" x2="140.57825" y1="78.875504" x1="393.28235" gradientTransform="matrix(0.13779526,0,0,0.13779526,0,-6.2696827)" gradientUnits="userSpaceOnUse" id="linearGradient1140" xlink:href="#linearGradient2213" fill="#000000"/>
    <linearGradient y2="404.15103" x2="140.57825" y1="78.875504" x1="393.28235" gradientTransform="matrix(0.46981133,0,0,1,256.46475,-75.856104)" gradientUnits="userSpaceOnUse" id="linearGradient1111-9" xlink:href="#linearGradient2213" fill="#000000"/>
    <linearGradient gradientUnits="userSpaceOnUse" y2="230.58652" x2="292.77631" y1="182.63753" x1="454.78683" id="linearGradient1427" xlink:href="#linearGradient2213" fill="#000000"/>
  </defs>
  <metadata id="metadata5" fill="#000000">
    <rdf:RDF fill="#000000">
      <cc:Work rdf:about="" fill="#000000">
        <dc:format fill="#000000">image/svg+xml</dc:format>
        <dc:type rdf:resource="http://purl.org/dc/dcmitype/StillImage" fill="#000000"/>
        <dc:title fill="#000000"/>
      </cc:Work>
    </rdf:RDF>
  </metadata>
  <g transform="translate(-72.232236,-86.006401)" id="layer1">
    <g transform="matrix(0.03645833,0,0,0.03645833,72.232236,84.347547)" id="g948">
      <g id="g1434">
        <path id="path946" transform="matrix(7.2571435,0,0,7.2571435,0,45.5)" style="fill:url(#linearGradient1140);fill-opacity:1;stroke-width:0.13779527" d="M 4.1347656,0 C 1.8553564,0 0,1.8553564 0,4.1347656 V 31.347656 c 0,0.759252 0.6196552,1.378906 1.3789062,1.378906 0.7592519,10e-7 1.3769532,-0.619654 1.3769532,-1.378906 V 13.779297 H 56.496094 v 4.822265 H 12.126953 c -0.761043,10e-7 -1.378906,0.617864 -1.378906,1.378907 V 49.054688 H 2.7558594 V 43.75 c 0,-0.759252 -0.6177013,-1.378906 -1.3769532,-1.378906 C 0.6196552,42.371094 0,42.990748 0,43.75 v 6.683594 c 0,0.746712 0.60546229,1.376953 1.3789062,1.376953 h 9.3691408 v 4.271484 c 0,0.761043 0.617863,1.378907 1.378906,1.378907 H 68.621094 C 69.381999,57.460937 70,56.843074 70,56.082031 V 19.980469 c 0,-0.761043 -0.618001,-1.378903 -1.378906,-1.378907 H 59.251953 V 4.1347656 C 59.251953,1.8553564 57.39658,0 55.117188,0 Z m 0,2.7558594 H 55.117188 c 0.759786,0 1.378906,0.6191031 1.378906,1.3789062 V 11.023438 H 2.7558594 V 4.1347656 c 0,-0.7598031 0.6191031,-1.3789062 1.3789062,-1.3789062 z M 6.890625,5.5117188 c -0.7610432,0 -1.3789062,0.617863 -1.3789062,1.3789062 -2e-7,0.7610432 0.617863,1.3769531 1.3789062,1.3769531 0.7610432,0 1.3769531,-0.6159099 1.3769531,-1.3769531 0,-0.7610432 -0.6159099,-1.3789062 -1.3769531,-1.3789062 z m 6.199219,0 c -0.761043,0 -1.376953,0.617863 -1.376953,1.3789062 0,0.7610432 0.61591,1.3769531 1.376953,1.3769531 0.761043,0 1.378906,-0.6159099 1.378906,-1.3769531 0,-0.7610432 -0.617863,-1.3789062 -1.378906,-1.3789062 z m 6.201172,0 c -0.761044,0 -1.376954,0.617863 -1.376954,1.3789062 0,0.7610432 0.61591,1.3769531 1.376954,1.3769531 0.761043,0 1.378906,-0.6159099 1.378906,-1.3769531 0,-0.7610432 -0.617863,-1.3789062 -1.378906,-1.3789062 z M 13.503906,21.357422 H 67.244141 V 54.705078 H 13.503906 Z m 16.949219,2.755859 c -2.659311,0 -4.822266,2.164908 -4.822266,4.824219 v 0.964844 h -3.445312 c -0.761043,0 -1.378906,0.61591 -1.378906,1.376953 v 17.914062 c 0,1.519607 1.236253,2.75586 2.755859,2.75586 h 13.779297 c 1.519606,0 2.755859,-1.236253 2.755859,-2.75586 V 31.279297 c 0,-0.761043 -0.616047,-1.376953 -1.376953,-1.376953 H 35.275391 V 28.9375 c 0,-2.659311 -2.162955,-4.824219 -4.822266,-4.824219 z m 0,2.75586 c 1.139705,0 2.066406,0.928654 2.066406,2.068359 v 0.964844 H 28.386719 V 28.9375 c 0,-1.139705 0.926701,-2.068359 2.066406,-2.068359 z M 23.5625,32.658203 h 2.068359 v 2.480469 c 0,0.761043 0.615927,1.376953 1.376953,1.376953 0.761044,0 1.378907,-0.61591 1.378907,-1.376953 v -2.480469 h 4.132812 v 2.480469 c 0,0.761043 0.617863,1.376953 1.378907,1.376953 0.761026,0 1.376953,-0.61591 1.376953,-1.376953 v -2.480469 h 2.066406 V 49.193359 H 23.5625 Z M 1.3789062,36.171875 C 0.6196552,36.171875 0,36.789576 0,37.548828 c 0,0.759252 0.6196552,1.378906 1.3789062,1.378906 0.7592519,0 1.3769532,-0.619654 1.3769532,-1.378906 0,-0.759252 -0.6177013,-1.376953 -1.3769532,-1.376953 z m 42.8535158,0.757813 c -0.760906,0 -1.378906,0.615909 -1.378906,1.376953 0,0.761043 0.618,1.378906 1.378906,1.378906 H 58.5625 c 0.760905,0 1.378906,-0.617863 1.378906,-1.378906 0,-0.761044 -0.618001,-1.376956 -1.378906,-1.376953 z m 1.376953,6.613281 c -1.519606,0 -2.755859,1.236253 -2.755859,2.755859 v 2.75586 c 0,1.519589 1.236253,2.755859 2.755859,2.755859 h 11.576172 c 1.519606,0 2.755859,-1.23627 2.755859,-2.755859 v -2.75586 c 0,-1.519606 -1.236253,-2.755859 -2.755859,-2.755859 z m 0,2.755859 h 11.576172 v 2.75586 H 45.609375 Z"/>
        <path id="path946-3" style="fill:url(#linearGradient1111);fill-opacity:1;stroke-width:1" d="m 321.00103,269.96118 c -5.52203,0 -10.00694,4.46992 -10.00694,9.99274 0,5.52298 4.48491,10.00695 10.00694,10.00695 h 103.99545 c 5.52196,0 10.00688,-4.48397 10.00688,-10.00695 0,-5.52282 -4.48492,-9.99279 -10.00688,-9.99274 z"/>
        <path style="fill:#ff0000;stroke:url(#linearGradient1427);stroke-width:20.05874469;stroke-linecap:round;stroke-linejoin:miter;stroke-miterlimit:4;stroke-dasharray:none;stroke-opacity:1;fill-opacity:1" d="m 365.4973,236.41815 h 59.33384" id="path1409"/>
      </g>
    </g>
  </g>
</svg>