<svg xmlns:dc="http://purl.org/dc/elements/1.1/" xmlns:cc="http://creativecommons.org/ns#" xmlns:rdf="http://www.w3.org/1999/02/22-rdf-syntax-ns#" xmlns:svg="http://www.w3.org/2000/svg" xmlns="http://www.w3.org/2000/svg" xmlns:xlink="http://www.w3.org/1999/xlink" xmlns:sodipodi="http://sodipodi.sourceforge.net/DTD/sodipodi-0.dtd" xmlns:inkscape="http://www.inkscape.org/namespaces/inkscape" width="70" height="70" viewBox="0 0 18.520833 18.520834" version="1.1" id="svg2868" inkscape:version="0.92.4 (5da689c313, 2019-01-14)" sodipodi:docname="2-add.svg">
  <defs id="defs2862" fill="#000000">
    <linearGradient inkscape:collect="always" xlink:href="#linearGradient2213" id="linearGradient2229" x1="318.336" y1="149.79898" x2="144.80299" y2="265" gradientUnits="userSpaceOnUse" gradientTransform="matrix(0.13671875,0,0,0.13671875,16.833984,404.87891)" fill="#000000"/>
    <linearGradient inkscape:collect="always" id="linearGradient2213" fill="#000000">
      <stop style="stop-color:#a35353;stop-opacity:1" offset="0" id="stop2209" fill="#000000"/>
      <stop style="stop-color:#1b4694;stop-opacity:1" offset="1" id="stop2211" fill="#000000"/>
    </linearGradient>
  </defs>
  <sodipodi:namedview id="base" pagecolor="#ffffff" bordercolor="#666666" borderopacity="1.0" inkscape:pageopacity="0.0" inkscape:pageshadow="2" inkscape:zoom="3.959798" inkscape:cx="-10.560122" inkscape:cy="46.982324" inkscape:document-units="mm" inkscape:current-layer="layer1" showgrid="false" units="px" inkscape:pagecheckerboard="true" inkscape:window-width="1920" inkscape:window-height="1001" inkscape:window-x="-9" inkscape:window-y="-9" inkscape:window-maximized="1" fill="#000000"/>
  <metadata id="metadata2865" fill="#000000">
    <rdf:RDF fill="#000000">
      <cc:Work rdf:about="" fill="#000000">
        <dc:format fill="#000000">image/svg+xml</dc:format>
        <dc:type rdf:resource="http://purl.org/dc/dcmitype/StillImage" fill="#000000"/>
        <dc:title fill="#000000"/>
      </cc:Work>
    </rdf:RDF>
  </metadata>
  <g inkscape:label="Layer 1" inkscape:groupmode="layer" id="layer1" transform="translate(0,-278.47915)">
    <g id="g2135" transform="matrix(0.2888415,0,0,0.2888415,-4.862353,161.53332)">
      <path id="path2133" d="m 78.289062,435.02539 c 0,0.75332 -0.613867,1.36719 -1.367188,1.36719 -0.75332,0 -1.367187,-0.61387 -1.367187,-1.36719 0,-0.75332 0.613867,-1.36719 1.367187,-1.36719 0.753321,0 1.367188,0.61387 1.367188,1.36719 z M 27.703125,411.71484 c 0,0.7551 -0.61209,1.36719 -1.367188,1.36719 -0.755097,0 -1.367187,-0.61209 -1.367187,-1.36719 0,-0.75509 0.61209,-1.36718 1.367187,-1.36718 0.755098,0 1.367188,0.61209 1.367188,1.36718 z m 6.152344,0 c 0,0.7551 -0.61209,1.36719 -1.367188,1.36719 -0.755098,0 -1.367187,-0.61209 -1.367187,-1.36719 0,-0.75509 0.612089,-1.36718 1.367187,-1.36718 0.755098,0 1.367188,0.61209 1.367188,1.36718 z m 6.152343,0 c 0,0.7551 -0.61209,1.36719 -1.367187,1.36719 -0.755098,0 -1.367188,-0.61209 -1.367188,-1.36719 0,-0.75509 0.61209,-1.36718 1.367188,-1.36718 0.755097,0 1.367187,0.61209 1.367187,1.36718 z m 38.28125,-2.73437 v 19.89258 c 0,0.75332 -0.613867,1.36718 -1.367188,1.36718 -0.75332,0 -1.367187,-0.61386 -1.367187,-1.36718 V 418.55078 H 22.234375 V 451.5 h 8.587578 l -2.104375,-2.1041 c -1.168262,-1.16826 -1.168398,-3.0692 -4.1e-4,-4.23774 l 6.380664,-6.38271 c 0.256348,-0.25648 0.60416,-0.40059 0.966875,-0.40059 h 25.753437 c 0.365859,0 0.716543,0.1467 0.973438,0.40729 l 6.294531,6.38271 c 1.152265,1.16827 1.145703,3.06278 -0.01477,4.22311 L 66.959316,451.5 h 8.595371 v -10.32363 c 0,-0.58106 0.362168,-1.11262 0.914785,-1.2924 0.943359,-0.30708 1.81959,0.39375 1.81959,1.2939 v 11.68932 c 0,0.7551 -0.61209,1.36719 -1.367188,1.36719 H 64.224531 L 49.857304,468.59969 C 49.590293,468.86656 49.240429,469 48.890566,469 c -0.349863,0 -0.699726,-0.13344 -0.966738,-0.40031 L 33.556601,454.23438 H 20.867187 C 20.11209,454.23438 19.5,453.62229 19.5,452.86719 v -43.88672 c 0,-2.2616 1.839961,-4.10156 4.101562,-4.10156 h 50.585937 c 2.261602,0 4.101563,1.83996 4.101563,4.10156 z m -32.540703,53.57707 -4.661562,-13.91332 h -9.253672 z m 20.199785,-13.91332 h -9.253535 l -4.661562,13.91332 z m -10.825801,-7.53484 1.578008,4.80046 h 9.280059 l -4.734024,-4.80046 z m -11.138886,4.80046 h 9.838691 l -1.578144,-4.80046 h -6.617598 z m -0.01299,2.73438 4.920098,14.68496 4.920234,-14.68496 z m -12.1383,-2.73438 h 9.261191 l 1.642949,-4.80046 h -6.105039 z m 43.722519,-36.92937 c 0,-0.75387 -0.61332,-1.36719 -1.367188,-1.36719 H 23.601562 c -0.753867,0 -1.367187,0.61332 -1.367187,1.36719 v 6.83594 h 53.320312 z m -28.031308,13.67187 v 11.6211 c 0,0.7551 0.612089,1.36719 1.367187,1.36719 0.755098,0 1.367188,-0.61209 1.367188,-1.36719 v -11.6211 c 0,-0.75509 -0.61209,-1.36718 -1.367188,-1.36718 -0.755098,0 -1.367187,0.61209 -1.367187,1.36718 z m -11.962344,2.20651 c -0.653926,0.37748 -0.878008,1.21365 -0.500391,1.86758 l 4.751934,8.2306 c 0.415762,0.67485 1.183164,0.88211 1.867578,0.50039 0.659395,-0.36763 0.878008,-1.21365 0.500391,-1.86758 l -4.751934,-8.2306 c -0.37748,-0.65393 -1.213789,-0.87801 -1.867578,-0.50039 z m -7.889219,9.25928 c -0.653789,-0.37735 -1.490097,-0.15354 -1.867578,0.50039 -0.377617,0.65392 -0.153535,1.49009 0.500391,1.86757 l 3.66625,2.11682 c 0.642988,0.35861 1.463301,0.18334 1.867578,-0.50039 0.384316,-0.64996 0.153535,-1.4901 -0.500391,-1.86758 z m 32.684668,-8.75889 -4.751934,8.2306 c -0.377617,0.65393 -0.159004,1.49995 0.500391,1.86758 0.684414,0.38172 1.451816,0.17432 1.867578,-0.50039 l 4.751934,-8.2306 c 0.377617,-0.65393 0.153535,-1.4901 -0.500391,-1.86758 -0.653789,-0.37762 -1.490098,-0.15354 -1.867578,0.50039 z m 9.756797,8.75889 -3.66625,2.11681 c -0.653926,0.37748 -0.884707,1.21762 -0.500391,1.86758 0.404277,0.68373 1.22459,0.859 1.867578,0.50039 l 3.66625,-2.11682 c 0.653926,-0.37748 0.878008,-1.21365 0.500391,-1.86757 -0.377481,-0.65379 -1.213789,-0.87774 -1.867578,-0.50039 z" inkscape:connector-curvature="0" style="fill:url(#linearGradient2229);fill-opacity:1;stroke-width:0.13671875"/>
    </g>
  </g>
</svg>