<svg xmlns:dc="http://purl.org/dc/elements/1.1/" xmlns:cc="http://creativecommons.org/ns#" xmlns:rdf="http://www.w3.org/1999/02/22-rdf-syntax-ns#" xmlns:svg="http://www.w3.org/2000/svg" xmlns="http://www.w3.org/2000/svg" xmlns:xlink="http://www.w3.org/1999/xlink" id="svg2868" version="1.1" viewBox="0 0 18.520833 18.520834" height="70" width="70">
  <defs id="defs2862" fill="#000000">
    <linearGradient id="linearGradient2213" fill="#000000">
      <stop id="stop2209" offset="0" style="stop-color:#a35353;stop-opacity:1" fill="#000000"/>
      <stop id="stop2211" offset="1" style="stop-color:#1b4694;stop-opacity:1" fill="#000000"/>
    </linearGradient>
    <linearGradient gradientUnits="userSpaceOnUse" y2="376" x2="50" y1="176" x1="365" id="linearGradient2253" xlink:href="#linearGradient2213" fill="#000000"/>
  </defs>
  <metadata id="metadata2865" fill="#000000">
    <rdf:RDF fill="#000000">
      <cc:Work rdf:about="" fill="#000000">
        <dc:format fill="#000000">image/svg+xml</dc:format>
        <dc:type rdf:resource="http://purl.org/dc/dcmitype/StillImage" fill="#000000"/>
        <dc:title fill="#000000"/>
      </cc:Work>
    </rdf:RDF>
  </metadata>
  <g transform="translate(0,-278.47915)" id="layer1">
    <g transform="matrix(0.03645833,0,0,0.03645833,8.4666667e-7,278.47915)" id="g2174">
      <path style="fill:url(#linearGradient2253);fill-opacity:1" d="m 264,444 c 0,5.51 -4.49,10 -10,10 -5.51,0 -10,-4.49 -10,-10 0,-5.51 4.49,-10 10,-10 5.51,0 10,4.49 10,10 z m 163,-70 v 20 c 0,11.028 -8.972,20 -20,20 h -84 c -11.028,0 -20,-8.972 -20,-20 v -20 c 0,-11.028 8.972,-20 20,-20 h 84 c 11.028,0 20,8.972 20,20 z m -20,0 h -84 v 20 h 84 z M 242,186 v 160 c 0,5.523 -4.478,10 -10,10 H 50 c -5.522,0 -10,-4.477 -10,-10 V 186 c 0,-5.523 4.478,-10 10,-10 h 182 c 5.522,0 10,4.477 10,10 z m -20,10 h -22 c -12.131,0 -22,9.869 -22,22 0,12.131 9.869,22 22,22 12.131,0 22,-9.869 22,-22 z M 60,336 h 118.525 l -55.948,-52.297 c -11.487,-10.738 -29.485,-10.74 -40.973,0 L 60,303.898 Z m 162,0 v -82.242 c -6.403,3.954 -13.938,6.242 -22,6.242 -23.159,0 -42,-18.841 -42,-42 0,-8.062 2.288,-15.597 6.242,-22 H 60 v 80.521 l 7.946,-7.428 c 19.147,-17.898 49.144,-17.897 68.289,0 L 207.813,336 Z M 60,104 c 0,5.523 -4.477,10 -10,10 -5.523,0 -10,-4.477 -10,-10 0,-5.523 4.477,-10 10,-10 5.523,0 10,4.477 10,10 z m 45,0 c 0,5.523 -4.477,10 -10,10 -5.523,0 -10,-4.477 -10,-10 0,-5.523 4.477,-10 10,-10 5.523,0 10,4.477 10,10 z m 45,0 c 0,5.523 -4.477,10 -10,10 -5.523,0 -10,-4.477 -10,-10 0,-5.523 4.477,-10 10,-10 5.523,0 10,4.477 10,10 z M 50,376 c -5.522,0 -10,4.477 -10,10 0,5.523 4.478,10 10,10 h 86 c 5.522,0 10,-4.477 10,-10 0,-5.523 -4.478,-10 -10,-10 z M 365,176 h -93 c -5.522,0 -10,4.477 -10,10 0,5.523 4.478,10 10,10 h 93 c 5.522,0 10,-4.477 10,-10 0,-5.523 -4.478,-10 -10,-10 z m -103,58 c 0,5.523 4.478,10 10,10 h 186 c 5.522,0 10,-4.477 10,-10 0,-5.523 -4.478,-10 -10,-10 H 272 c -5.522,0 -10,4.477 -10,10 z m 165,48 c 0,-5.523 -4.478,-10 -10,-10 H 272 c -5.522,0 -10,4.477 -10,10 0,5.523 4.478,10 10,10 h 145 c 5.522,0 10,-4.477 10,-10 z M 10,454 C 4.477,454 0,449.523 0,444 V 84 C 0,67.431 13.431,54 30,54 h 448 c 16.569,0 30,13.431 30,30 v 360 c 0,5.523 -4.477,10 -10,10 H 299 c -5.739,0 -10.373,-4.872 -9.976,-10.694 C 289.385,438 294.04,434 299.358,434 H 488 V 154 H 20 v 280 h 189.01 c 5.736,0.01 10.357,4.866 9.967,10.685 -0.356,5.309 -5.009,9.315 -10.33,9.315 z M 20,134 H 488 V 84 c 0,-5.514 -4.486,-10 -10,-10 H 30 c -5.514,0 -10,4.486 -10,10 z" id="path2172"/>
    </g>
  </g>
</svg>